<svg width="80" height="80" fill="none" xmlns="http://www.w3.org/2000/svg"><g clip-path="url(#clip0_289_949)"><path d="M80 40C80 17.909 62.091 0 40 0S0 17.909 0 40s17.909 40 40 40 40-17.909 40-40z" fill="#EFF8FC"/><path d="M52.19 32.104l-1.576-5.416c-.146-.5-.52-.901-1.01-1.08l-2.711-.96-.931-2.936a2.453 2.453 0 00-3.026-1.613l-.442.127a1.637 1.637 0 00-1.103 2.064l.25.79c-.012.008-.026.011-.035.02l-.594-1.696a1.634 1.634 0 00-2.147-1.035l-.687.263c-1.303.5-1.764 2.145-1.213 3.425l2.641 5.927h-.047l-2.7-6.35a1.636 1.636 0 00-2.268-.795l-.661.264a2.456 2.456 0 00-.98 3.392l2.029 3.454-1.773-2.994c-.476-.805-1.591-2.472-2.372-1.955l-.833 1.667c-1.67 1.207-.401 3.317-.401 3.317v5.727c0 2.656 1.363 5.357 3.574 6.925L31.4 65h15.055l-.873-22.639 5.364-5.415a4.912 4.912 0 001.244-4.842z" fill="#80D8FF"/><path d="M52.19 32.104l-1.576-5.416c-.146-.5-.52-.901-1.01-1.08l-2.711-.96-.931-2.936a2.453 2.453 0 00-3.026-1.613l-.442.127a1.637 1.637 0 00-1.103 2.064l.25.79c-.012.008-.026.011-.035.02l-.594-1.696a1.634 1.634 0 00-2.147-1.035l-.687.263c-1.14.437-1.635 1.75-1.373 2.93-.077-.153 2.881 6.932 2.881 6.932l-.991 2.14L38.6 65h7.855l-.873-22.639 5.364-5.415a4.912 4.912 0 001.244-4.842z" fill="#FFF176"/><path d="M42.59 22.962l7.003 2.651c.49.18.867.573 1.014 1.08l1.57 5.416a4.873 4.873 0 01-1.242 4.844l-4.973 4.975-1.326.916 1.666-9.445-.831-4.088-2.717-1.636a3.234 3.234 0 01-1.178-4.336.8.8 0 01.718-.426c.1 0 .199.017.297.05z" fill="#FFF176"/><path d="M34.631 43.264s3.2.702 3.2-2.883c0-6.788 7.64-8.378 7.64-8.378v-2.692l-2.349-1.415.052.168a2.001 2.001 0 01-1.186 2.466c-.954.37-2.006-.059-2.474-.95h-.205l.244.563a1.951 1.951 0 01-3.484 1.747l-.29-.504h-.148c.365.831.13 1.813-.63 2.347a1.935 1.935 0 01-2.627-.378l-2.4-3.03a2.438 2.438 0 01-.497-1.187c.02.494.122.846.122.846v5.727c0 2.656 1.363 5.357 3.574 6.925l1.458.628z" fill="#65C7EA"/><path d="M34.292 43.695a.802.802 0 01-.32-.065 9.144 9.144 0 01-5.638-8.462v-6.5a.834.834 0 011.667 0v6.5a7.487 7.487 0 004.613 6.926.833.833 0 01-.322 1.601z" fill="#010101"/><path d="M33.608 34.208a2.8 2.8 0 01-2.197-1.06l-2.45-3.085a3.336 3.336 0 01-.681-2.596c.146-.922 2.226-3.147 3.005-3.662l.294-.195A.834.834 0 0132.5 25l-.294.197c-.397.261-2.205 2.065-2.28 2.531a1.65 1.65 0 00.341 1.299l2.45 3.085a1.137 1.137 0 001.542.223 1.142 1.142 0 00.325-1.508.832.832 0 01.295-1.142.837.837 0 011.142.293 2.82 2.82 0 01-.802 3.72c-.49.344-1.052.51-1.61.51z" fill="#010101"/><path d="M37.496 33.008a2.84 2.84 0 01-2.46-1.411l-3.083-5.369a3.316 3.316 0 01-.313-2.585c.253-.876 3.255-2.524 4.061-2.95l.505-.268a.832.832 0 011.127.347.832.832 0 01-.345 1.127l-.505.266c-.405.213-3.113 1.502-3.24 1.94-.127.438-.072.897.157 1.292l3.083 5.368c.31.538 1.007.735 1.553.44a1.15 1.15 0 00.508-1.475.834.834 0 011.53-.66 2.807 2.807 0 01-1.243 3.6c-.423.228-.88.338-1.335.338zm9.17-8.643a.835.835 0 01-.795-.582l-.834-2.621a1.662 1.662 0 00-2.053-1.095l-.45.131a.836.836 0 00-.562 1.05l.253.809a.833.833 0 11-1.588.5l-.253-.809a2.475 2.475 0 01.178-1.93 2.48 2.48 0 011.505-1.221l.45-.132a3.313 3.313 0 014.108 2.192l.834 2.621a.833.833 0 01-.794 1.087zm-.664 32.833a.834.834 0 01-.833-.802l-.557-14.423a.834.834 0 01.8-.865h.033c.447 0 .815.352.834.802l.556 14.423a.834.834 0 01-.8.865h-.033zM46.333 65a.833.833 0 01-.831-.788l-.249-4.527a.832.832 0 01.787-.877.823.823 0 01.877.787l.248 4.527a.832.832 0 01-.787.876c-.015.002-.03.002-.045.002zm-15.332 0c-.027 0-.05 0-.077-.003a.833.833 0 01-.755-.904l.596-6.667c.04-.46.451-.81.904-.756.457.04.797.447.756.903l-.595 6.667A.835.835 0 0131 65zm.897-9.792l-.065-.001a.836.836 0 01-.768-.895l.91-11.942c.035-.46.488-.795.895-.767a.836.836 0 01.768.895l-.91 11.942a.836.836 0 01-.83.768z" fill="#010101"/><path d="M44.097 43.471a.834.834 0 01-.208-1.64c.395-.1 1.032-.601 1.356-.923l5.066-5.065a4.148 4.148 0 001.056-4.108l-1.601-5.522a.832.832 0 00-.52-.55l-7.14-2.703a2.449 2.449 0 00.888 3.305l2.768 1.668c.25.15.404.422.404.714v2.741a.834.834 0 01-1.667 0v-2.266l-2.364-1.424a4.117 4.117 0 01-1.5-5.531c.366-.69 1.229-1.039 2.027-.774l7.165 2.712a2.48 2.48 0 011.54 1.647l1.6 5.516a5.815 5.815 0 01-1.478 5.755l-5.067 5.067c-.113.113-1.128 1.102-2.118 1.357a.792.792 0 01-.207.024z" fill="#010101"/><path d="M37.55 40.758a.834.834 0 01-.833-.825c-.056-5.243 4.285-8.636 8.605-9.28a.842.842 0 01.946.702.832.832 0 01-.702.947c-3.494.52-7.232 3.125-7.184 7.613a.833.833 0 01-.823.842l-.008.001zm3.548-9.655c-1.123 0-2.2-.656-2.67-1.738l-2.578-5.947a3.305 3.305 0 01-.015-2.616c.355-.847 4.355-1.494 5.213-1.822l.682-.262a.833.833 0 11.597 1.557l-.682.262c-.428.165-4.095.486-4.272.91-.176.423-.176.886.007 1.306l2.58 5.949a1.228 1.228 0 002.298-.85.832.832 0 01.55-1.042.828.828 0 011.042.552 2.878 2.878 0 01-2.752 3.741z" fill="#010101"/></g><defs><clipPath id="clip0_289_949"><path fill="#fff" d="M0 0h80v80H0z"/></clipPath></defs></svg>