<svg width="60" height="61" fill="none" xmlns="http://www.w3.org/2000/svg"><g clip-path="url(#clip0_501_604)"><path d="M60 30.5c0-16.569-13.431-30-30-30-16.569 0-30 13.431-30 30 0 16.569 13.431 30 30 30 16.569 0 30-13.431 30-30z" fill="#EFF8FC"/><path d="M39.142 24.578l-1.182-4.062a1.227 1.227 0 00-.757-.81l-2.034-.72-.698-2.202a1.84 1.84 0 00-2.27-1.21l-.33.096a1.228 1.228 0 00-.828 1.547l.187.593c-.009.006-.019.009-.026.015l-.446-1.272a1.226 1.226 0 00-1.61-.777l-.515.198c-.977.374-1.323 1.609-.91 2.569l1.981 4.445h-.035l-2.025-4.762a1.227 1.227 0 00-1.701-.596l-.496.197a1.842 1.842 0 00-.735 2.544l1.521 2.591-1.329-2.246c-.357-.604-1.194-1.854-1.779-1.466L22.5 20.5c-1.252.906-.3 2.488-.3 2.488v4.295c0 1.992 1.022 4.018 2.68 5.194L23.55 49.25h11.29l-.654-16.98 4.023-4.06a3.684 3.684 0 00.933-3.632z" fill="#80D8FF"/><path d="M39.14 24.578l-1.18-4.062a1.226 1.226 0 00-.758-.81l-2.034-.72-.698-2.202a1.84 1.84 0 00-2.27-1.21l-.33.096a1.228 1.228 0 00-.828 1.547l.187.593c-.009.006-.019.009-.026.015l-.446-1.272a1.226 1.226 0 00-1.61-.777l-.515.198c-.854.328-1.226 1.312-1.03 2.197-.058-.114 2.161 5.2 2.161 5.2l-.743 1.605-.072 24.274h5.891l-.654-16.98 4.023-4.06a3.684 3.684 0 00.933-3.632z" fill="#FFF176"/><path d="M31.944 17.722l5.252 1.988c.368.135.65.43.76.81l1.178 4.062a3.655 3.655 0 01-.932 3.633l-3.73 3.73-.994.688 1.25-7.084-.624-3.065-2.037-1.228a2.426 2.426 0 01-.884-3.252.6.6 0 01.539-.319c.075 0 .148.012.222.037z" fill="#FFF176"/><path d="M25.973 32.948s2.4.527 2.4-2.162c0-5.09 5.731-6.284 5.731-6.284v-2.018l-1.762-1.062.039.126a1.501 1.501 0 01-.89 1.85 1.49 1.49 0 01-1.856-.713h-.153l.183.422a1.464 1.464 0 01-2.613 1.31l-.217-.377h-.112c.274.623.097 1.36-.472 1.76a1.45 1.45 0 01-1.97-.284l-1.8-2.272a1.83 1.83 0 01-.374-.89c.016.37.093.634.093.634v4.295c0 1.992 1.022 4.018 2.68 5.194l1.093.471z" fill="#65C7EA"/><path d="M25.719 33.272a.603.603 0 01-.24-.05 6.858 6.858 0 01-4.229-6.346v-4.875a.625.625 0 011.25 0v4.875a5.615 5.615 0 003.46 5.194.625.625 0 01-.241 1.202z" fill="#010101"/><path d="M25.207 26.156a2.1 2.1 0 01-1.648-.795l-1.837-2.314a2.502 2.502 0 01-.511-1.947c.11-.691 1.67-2.36 2.253-2.746l.222-.147a.626.626 0 01.69 1.043l-.222.147c-.297.197-1.653 1.55-1.71 1.9-.055.35.035.695.257.973l1.837 2.314a.853.853 0 001.156.167.857.857 0 00.244-1.131.624.624 0 01.221-.856.628.628 0 01.857.22 2.116 2.116 0 01-.602 2.79 2.098 2.098 0 01-1.207.382z" fill="#010101"/><path d="M28.122 25.256a2.13 2.13 0 01-1.845-1.058l-2.312-4.027a2.487 2.487 0 01-.235-1.938c.19-.658 2.44-1.894 3.046-2.213l.379-.201a.624.624 0 01.845.26.624.624 0 01-.26.845l-.378.2c-.304.16-2.335 1.126-2.43 1.455a1.23 1.23 0 00.118.968l2.312 4.027a.874.874 0 001.165.33.864.864 0 00.381-1.107.625.625 0 011.148-.495 2.106 2.106 0 01-.933 2.7 2.09 2.09 0 01-1 .254zM35 18.774a.626.626 0 01-.597-.436l-.625-1.967a1.246 1.246 0 00-1.54-.82l-.338.098a.627.627 0 00-.42.787l.189.607a.625.625 0 11-1.191.375l-.19-.607a1.856 1.856 0 01.134-1.447 1.86 1.86 0 011.128-.916l.338-.1a2.485 2.485 0 013.081 1.644l.625 1.967a.625.625 0 01-.595.815zm-.498 24.625a.625.625 0 01-.625-.602L33.46 31.98a.626.626 0 01.6-.649h.026c.334 0 .61.264.624.602l.418 10.817a.625.625 0 01-.6.649h-.025zm.248 5.851a.625.625 0 01-.623-.591l-.187-3.396a.624.624 0 01.59-.657c.35-.025.64.246.658.59l.186 3.395a.624.624 0 01-.59.657c-.01.002-.022.002-.034.002zm-11.499 0c-.02 0-.037 0-.057-.002a.625.625 0 01-.566-.678l.446-5a.62.62 0 01.679-.567c.342.03.597.335.566.677l-.446 5a.626.626 0 01-.622.57zm.673-7.344h-.05a.627.627 0 01-.575-.672l.682-8.956c.026-.345.366-.597.671-.576a.627.627 0 01.576.672l-.682 8.956a.627.627 0 01-.622.576z" fill="#010101"/><path d="M33.072 33.104a.625.625 0 01-.156-1.23c.296-.076.774-.451 1.017-.693l3.799-3.798a3.111 3.111 0 00.793-3.082l-1.202-4.14a.624.624 0 00-.39-.413l-5.355-2.028a1.837 1.837 0 00.667 2.479l2.076 1.251a.625.625 0 01.302.535v2.056a.625.625 0 01-1.25 0v-1.7l-1.772-1.067a3.087 3.087 0 01-1.125-4.149c.274-.517.921-.779 1.52-.58l5.374 2.034a1.86 1.86 0 011.155 1.235l1.2 4.137a4.362 4.362 0 01-1.11 4.317l-3.8 3.8c-.084.085-.846.826-1.588 1.017a.593.593 0 01-.155.019z" fill="#010101"/><path d="M28.163 31.068a.626.626 0 01-.625-.618c-.043-3.933 3.213-6.478 6.453-6.96a.624.624 0 11.183 1.236c-2.62.39-5.424 2.344-5.388 5.71a.625.625 0 01-.617.631l-.006.001zm2.661-7.24c-.842 0-1.65-.493-2.002-1.304l-1.934-4.46a2.479 2.479 0 01-.011-1.963c.266-.635 3.266-1.12 3.91-1.366l.51-.196a.625.625 0 11.448 1.168l-.51.196c-.322.123-3.072.364-3.205.682a1.24 1.24 0 00.005.98l1.935 4.461a.921.921 0 001.724-.637.624.624 0 111.194-.368 2.159 2.159 0 01-2.064 2.806z" fill="#010101"/></g><defs><clipPath id="clip0_501_604"><path fill="#fff" transform="translate(0 .5)" d="M0 0h60v60H0z"/></clipPath></defs></svg>