<svg width="75" height="76" fill="none" xmlns="http://www.w3.org/2000/svg"><path d="M37.5 1.672C17.43 1.672 1.172 17.932 1.172 38c0 20.067 16.26 36.328 36.328 36.328 20.07 0 36.328-16.26 36.328-36.328 0-20.067-16.26-36.328-36.328-36.328zM55.343 26.56L49.38 54.657c-.44 1.992-1.626 2.475-3.28 1.538L37.016 49.5l-4.38 4.218c-.483.483-.893.893-1.83.893l.644-9.243 16.83-15.206c.734-.645-.161-1.01-1.13-.366L26.35 42.89l-8.965-2.798c-1.948-.614-1.992-1.948.41-2.885L52.821 23.7c1.627-.586 3.047.396 2.52 2.857l.002.002z" fill="#FDF258"/></svg>