<svg width="75" height="76" fill="none" xmlns="http://www.w3.org/2000/svg"><path d="M65.625 6.75H9.375A3.125 3.125 0 006.25 9.875v56.25a3.125 3.125 0 003.125 3.125h56.25a3.125 3.125 0 003.125-3.125V9.875a3.125 3.125 0 00-3.125-3.125zM55.372 34.016c-.34.034-.684.05-1.025.053A11.158 11.158 0 0145 29.029v17.165a12.69 12.69 0 11-12.688-12.688c.266 0 .522.025.785.04v6.25a6.459 6.459 0 10-.785 12.873 6.634 6.634 0 006.75-6.39l.063-29.16h5.981a11.138 11.138 0 0010.266 9.944v6.953z" fill="#FDF258"/></svg>