<svg width="75" height="76" fill="none" xmlns="http://www.w3.org/2000/svg"><path d="M73.425 19.885a9.389 9.389 0 00-6.532-6.518c-5.847-1.563-29.355-1.563-29.355-1.563s-23.463-.038-29.372 1.563a9.387 9.387 0 00-6.518 6.518A97.44 97.44 0 00.015 38.037a98.756 98.756 0 001.633 18.066 9.427 9.427 0 006.518 6.532c5.848 1.563 29.372 1.563 29.372 1.563s23.45 0 29.355-1.563a9.429 9.429 0 006.532-6.532 98.276 98.276 0 001.564-18.066 98.177 98.177 0 00-1.564-18.152zM30.03 49.257V26.769l19.568 11.268-19.568 11.22z" fill="#FDF258"/></svg>