<svg width="75" height="76" viewBox="0 0 75 76" fill="none" xmlns="http://www.w3.org/2000/svg">
<path d="M24 5C13.245 5 4.5 13.745 4.5 24.5V51.5C4.5 62.255 13.245 71 24 71H51C61.755 71 70.5 62.255 70.5 51.5V24.5C70.5 13.745 61.755 5 51 5H24ZM55.5 17C57.15 17 58.5 18.35 58.5 20C58.5 21.65 57.15 23 55.5 23C53.85 23 52.5 21.65 52.5 20C52.5 18.35 53.85 17 55.5 17ZM37.5 21.5C46.605 21.5 54 28.895 54 38C54 47.105 46.605 54.5 37.5 54.5C28.395 54.5 21 47.105 21 38C21 28.895 28.395 21.5 37.5 21.5ZM37.5 24.5C30.06 24.5 24 30.56 24 38C24 45.44 30.06 51.5 37.5 51.5C44.94 51.5 51 45.44 51 38C51 30.56 44.94 24.5 37.5 24.5Z" fill="#FDF258"/>
</svg>
