<svg width="75" height="76" viewBox="0 0 75 76" fill="none" xmlns="http://www.w3.org/2000/svg">
<path d="M37.5 1.67188C17.4305 1.67188 1.17188 17.9328 1.17188 38C1.17188 58.0672 17.4328 74.3281 37.5 74.3281C57.5695 74.3281 73.8281 58.0672 73.8281 38C73.8281 17.9328 57.5672 1.67188 37.5 1.67188ZM55.343 26.5602L49.3805 54.657C48.9398 56.6492 47.7539 57.132 46.0992 56.1945L37.0172 49.5008L32.6367 53.7195C32.1539 54.2023 31.7437 54.6125 30.8062 54.6125L31.4508 45.3687L48.2812 30.1625C49.0148 29.518 48.1195 29.1523 47.1516 29.7969L26.3508 42.8914L17.3859 40.093C15.4383 39.4789 15.3938 38.1453 17.7961 37.2078L52.8211 23.7008C54.4477 23.1148 55.868 24.0969 55.3406 26.5578L55.343 26.5602Z" fill="#FDF258"/>
</svg>
