<svg width="75" height="76" viewBox="0 0 75 76" fill="none" xmlns="http://www.w3.org/2000/svg">
<path d="M65.625 6.75H9.375C8.5462 6.75 7.75134 7.07924 7.16529 7.66529C6.57924 8.25134 6.25 9.0462 6.25 9.875V66.125C6.25 66.9538 6.57924 67.7487 7.16529 68.3347C7.75134 68.9208 8.5462 69.25 9.375 69.25H65.625C66.4538 69.25 67.2487 68.9208 67.8347 68.3347C68.4208 67.7487 68.75 66.9538 68.75 66.125V9.875C68.75 9.0462 68.4208 8.25134 67.8347 7.66529C67.2487 7.07924 66.4538 6.75 65.625 6.75ZM55.3719 34.0156C55.0312 34.05 54.6875 34.0656 54.3469 34.0687C52.4928 34.0712 50.6673 33.6116 49.0354 32.7315C47.4035 31.8515 46.0166 30.5787 45 29.0281V46.1937C45.0006 48.704 44.2568 51.158 42.8625 53.2455C41.4683 55.3329 39.4863 56.96 37.1673 57.9209C34.8483 58.8818 32.2964 59.1334 29.8343 58.6438C27.3723 58.1542 25.1108 56.9455 23.3357 55.1705C21.5607 53.3955 20.352 51.134 19.8624 48.6719C19.3729 46.2099 19.6245 43.658 20.5854 41.3389C21.5463 39.0199 23.1733 37.0379 25.2608 35.6437C27.3482 34.2495 29.8023 33.5056 32.3125 33.5062C32.5781 33.5062 32.8344 33.5312 33.0969 33.5469V39.7969C32.2226 39.691 31.3358 39.765 30.4912 40.0144C29.6465 40.2637 28.8618 40.6832 28.1852 41.247C27.5086 41.8108 26.9544 42.507 26.5567 43.2928C26.1591 44.0786 25.9263 44.9374 25.8727 45.8165C25.8192 46.6956 25.9459 47.5763 26.2452 48.4046C26.5445 49.2329 27.0101 49.9912 27.6132 50.633C28.2163 51.2747 28.9443 51.7864 29.7525 52.1365C30.5606 52.4866 31.4318 52.6677 32.3125 52.6687C34.0505 52.7002 35.7315 52.0483 36.9938 50.8532C38.2561 49.6581 38.9989 48.0153 39.0625 46.2781L39.125 17.1187H45.1062C45.3793 19.717 46.5572 22.1366 48.4337 23.9544C50.3103 25.7721 52.7662 26.8723 55.3719 27.0625V34.0156Z" fill="#FDF258"/>
</svg>
