<svg width="80" height="80" viewBox="0 0 80 80" fill="none" xmlns="http://www.w3.org/2000/svg">
<g clip-path="url(#clip0_289_949)">
<path d="M80 40C80 17.9086 62.0914 0 40 0C17.9086 0 0 17.9086 0 40C0 62.0914 17.9086 80 40 80C62.0914 80 80 62.0914 80 40Z" fill="#EFF8FC"/>
<path d="M52.1898 32.1044L50.6141 26.6881C50.4684 26.1874 50.0935 25.7865 49.6043 25.6081L46.8927 24.6476L45.9617 21.712C45.5594 20.4422 44.2173 19.7255 42.9361 20.0986L42.4943 20.2262C41.6139 20.4831 41.1148 21.4142 41.3914 22.2896L41.6401 23.08C41.6286 23.0882 41.6155 23.0914 41.6059 23.0996L41.0117 21.4044C40.7287 20.5044 39.7469 20.0299 38.8649 20.3686L38.1777 20.632C36.8751 21.1311 36.4137 22.7773 36.9651 24.0569L39.6062 29.9837H39.5588L36.8588 23.6347C36.4808 22.7592 35.4351 22.3927 34.5908 22.8394L33.9297 23.1029C32.7024 23.7525 32.259 25.2907 32.9496 26.495L34.9786 29.9494L33.2064 26.9549C32.7303 26.1498 31.6147 24.4829 30.8342 24.9999L30.0009 26.6666C28.3318 27.8742 29.5999 29.9837 29.5999 29.9837V35.7109C29.5999 38.3667 30.963 41.0682 33.1737 42.636L31.3999 64.9998H46.4545L45.582 42.361L50.946 36.9464C52.2125 35.6798 52.6889 33.8242 52.1898 32.1044Z" fill="#80D8FF"/>
<path d="M52.1898 32.1044L50.6141 26.6881C50.4684 26.1874 50.0935 25.7865 49.6043 25.6081L46.8927 24.6476L45.9618 21.712C45.5594 20.4422 44.2173 19.7255 42.9361 20.0986L42.4943 20.2262C41.6139 20.4831 41.1148 21.4142 41.3914 22.2896L41.6402 23.08C41.6286 23.0882 41.6155 23.0914 41.6059 23.0996L41.0117 21.4044C40.7287 20.5044 39.747 20.0299 38.865 20.3686L38.1777 20.632C37.0388 21.0689 36.543 22.3813 36.8048 23.5611C36.7279 23.4089 39.6864 30.4943 39.6864 30.4943L38.6948 32.6346L38.5999 64.9998H46.4545L45.5821 42.361L50.946 36.9464C52.2125 35.6798 52.6889 33.8242 52.1898 32.1044Z" fill="#FFF176"/>
<path d="M42.5906 22.9623L49.5928 25.6132C50.0835 25.7932 50.4601 26.1859 50.6073 26.6931L52.1779 32.1095C52.6869 33.8276 52.2125 35.6767 50.9345 36.953L45.9618 41.9276L44.636 42.8438L46.3021 33.3989L45.4706 29.3113L42.7542 27.675C41.2489 26.775 40.7415 24.8604 41.5761 23.3386C41.7234 23.0605 42.0016 22.9132 42.2945 22.9132C42.3944 22.9132 42.4927 22.9296 42.5906 22.9623Z" fill="#FFF176"/>
<path d="M34.631 43.2645C34.631 43.2645 37.8301 43.9662 37.8301 40.3809C37.8317 33.5935 45.4719 32.003 45.4719 32.003V29.3112L43.1221 27.8958L43.1742 28.0643C43.4903 29.0707 42.9716 30.149 41.9882 30.5303C41.0341 30.9001 39.9818 30.4714 39.5139 29.5796H39.3094L39.5532 30.1425C39.9539 31.0703 39.5826 32.1519 38.6941 32.633C37.763 33.1386 36.5979 32.8081 36.0694 31.8901L35.7798 31.3861H35.6308C35.9958 32.2173 35.7601 33.1992 35.0009 33.7326C34.163 34.3217 33.011 34.1564 32.3745 33.3546L29.974 30.3257C29.6909 29.969 29.5355 29.5567 29.4766 29.1377C29.4978 29.6319 29.5993 29.9838 29.5993 29.9838V35.711C29.5993 38.3668 30.9623 41.0683 33.173 42.636L34.631 43.2645Z" fill="#65C7EA"/>
<path d="M34.2923 43.6952C34.1856 43.6952 34.0756 43.6749 33.9723 43.6299C30.5473 42.2018 28.334 38.8801 28.334 35.1684V28.6684C28.334 28.2084 28.7073 27.8351 29.1673 27.8351C29.6273 27.8351 30.0007 28.2084 30.0007 28.6684V35.1684C30.0007 38.2051 31.8123 40.9234 34.614 42.0936C35.039 42.2699 35.239 42.7583 35.0623 43.1833C34.9273 43.5033 34.619 43.6952 34.2923 43.6952Z" fill="#010101"/>
<path d="M33.6079 34.2083C32.7795 34.2083 31.9612 33.8416 31.4112 33.1483L28.9612 30.0633C28.3812 29.3349 28.1329 28.3883 28.2795 27.4666C28.4262 26.545 30.5062 24.3199 31.2846 23.8049L31.5795 23.61C31.9612 23.3583 32.4795 23.4599 32.7345 23.8449C32.9879 24.2283 32.8829 24.7466 32.4995 24.9999L32.2046 25.1966C31.8079 25.4583 29.9995 27.2616 29.9245 27.7283C29.8512 28.1949 29.9712 28.6566 30.2662 29.0266L32.7162 32.1116C33.0912 32.5833 33.7695 32.6783 34.2578 32.3349C34.7395 31.9966 34.8828 31.3333 34.5829 30.8266C34.3478 30.4299 34.4795 29.9199 34.8779 29.6849C35.2678 29.4533 35.7829 29.5816 36.0195 29.9783C36.7579 31.2283 36.4045 32.8616 35.2178 33.6983C34.7279 34.0416 34.1662 34.2083 33.6079 34.2083Z" fill="#010101"/>
<path d="M37.4961 33.0083C36.5145 33.0083 35.5545 32.4966 35.0362 31.5966L31.9528 26.2283C31.4995 25.4366 31.3878 24.5199 31.6395 23.6433C31.8928 22.7666 34.8945 21.1185 35.7012 20.6935L36.2061 20.4252C36.6145 20.2101 37.1178 20.3635 37.3328 20.7718C37.5495 21.1785 37.3945 21.6835 36.9878 21.8985L36.4828 22.1652C36.0778 22.3785 33.3695 23.6666 33.2428 24.1049C33.1162 24.5432 33.1711 25.0016 33.3995 25.3966L36.4828 30.7649C36.7928 31.3032 37.4895 31.4999 38.0362 31.2049C38.5645 30.9182 38.7828 30.2833 38.5445 29.7299C38.3628 29.3083 38.5562 28.8183 38.9795 28.6349C39.4011 28.4532 39.8913 28.6466 40.0744 29.0699C40.6594 30.4199 40.1229 31.9683 38.8311 32.6699C38.4078 32.8983 37.9511 33.0083 37.4961 33.0083Z" fill="#010101"/>
<path d="M46.6655 24.365C46.3121 24.365 45.9837 24.1383 45.8707 23.7833L45.0373 21.1617C44.7622 20.2933 43.8556 19.8167 42.9839 20.0667L42.5338 20.1983C42.3173 20.2617 42.1406 20.4067 42.0323 20.605C41.924 20.8033 41.9037 21.0333 41.9722 21.2483L42.2253 22.0567C42.3638 22.495 42.1207 22.9633 41.6821 23.1017C41.2454 23.2433 40.7738 22.9967 40.6373 22.5567L40.3837 21.7484C40.1788 21.1017 40.2421 20.4167 40.5621 19.8183C40.8805 19.22 41.4174 18.7867 42.0673 18.5967L42.5171 18.465C44.2739 17.9567 46.0721 18.9183 46.6253 20.6567L47.4588 23.2783C47.5989 23.7167 47.3557 24.185 46.9171 24.325C46.8355 24.3533 46.7487 24.365 46.6655 24.365Z" fill="#010101"/>
<path d="M46.0018 57.1984C45.5553 57.1984 45.1871 56.8465 45.1688 56.3964L44.612 41.9733C44.5937 41.5132 44.9535 41.1267 45.412 41.108C45.4235 41.108 45.4355 41.108 45.4454 41.108C45.892 41.108 46.2602 41.4599 46.2785 41.91L46.8353 56.3331C46.8536 56.7932 46.4938 57.1801 46.0353 57.1984C46.0221 57.1984 46.0102 57.1984 46.0018 57.1984Z" fill="#010101"/>
<path d="M46.3332 64.9997C45.8934 64.9997 45.5268 64.6567 45.5017 64.2117L45.2534 59.6847C45.2267 59.2266 45.5801 58.8334 46.0398 58.8083C46.5067 58.7749 46.8932 59.1367 46.9167 59.5948L47.165 64.1217C47.1917 64.5798 46.8382 64.9731 46.3781 64.9981C46.3634 64.9997 46.3483 64.9997 46.3332 64.9997Z" fill="#010101"/>
<path d="M31.0011 64.9998C30.9744 64.9998 30.9511 64.9998 30.9245 64.9966C30.4678 64.9564 30.1278 64.55 30.1695 64.0931L30.7645 57.4264C30.8045 56.9667 31.2161 56.6165 31.6695 56.6698C32.1261 56.71 32.4661 57.1168 32.4245 57.5733L31.8295 64.24C31.7895 64.6734 31.4261 64.9998 31.0011 64.9998Z" fill="#010101"/>
<path d="M31.8981 55.2084C31.8748 55.2084 31.8547 55.2084 31.8331 55.2068C31.3747 55.1718 31.0314 54.7718 31.0647 54.3117L31.9747 42.3702C32.0097 41.9101 32.4631 41.575 32.8697 41.6032C33.3281 41.6382 33.6714 42.0383 33.6381 42.4983L32.7281 54.4398C32.6931 54.8749 32.3281 55.2084 31.8981 55.2084Z" fill="#010101"/>
<path d="M44.0972 43.4714C43.7255 43.4714 43.3871 43.2215 43.2904 42.8465C43.1774 42.4016 43.4441 41.9466 43.889 41.8316C44.2839 41.7301 44.9207 41.2298 45.2455 40.9082L50.3105 35.8433C51.3907 34.7633 51.7971 33.1883 51.3672 31.7349L49.7657 26.2133C49.692 25.9583 49.5022 25.7583 49.2455 25.6633L42.1056 22.9599C41.4556 24.1316 41.8504 25.5816 42.9939 26.2649L45.7621 27.9333C46.012 28.0833 46.1656 28.3549 46.1656 28.6466V31.3883C46.1656 31.8483 45.7923 32.2216 45.3322 32.2216C44.8721 32.2216 44.4988 31.8483 44.4988 31.3883V29.1216L42.1354 27.6983C40.2222 26.5533 39.5605 24.1233 40.6357 22.1666C41.0007 21.4766 41.864 21.1283 42.6624 21.3933L49.8273 24.1049C50.5788 24.3816 51.144 24.9816 51.3672 25.7516L52.9672 31.2683C53.567 33.3033 53.0023 35.5099 51.489 37.0233L46.4224 42.0899C46.3089 42.2034 45.294 43.1916 44.3038 43.4467C44.2357 43.4651 44.1656 43.4714 44.0972 43.4714Z" fill="#010101"/>
<path d="M37.5507 40.7582C37.0957 40.7582 36.7224 40.3917 36.7173 39.9332C36.6607 34.69 41.0023 31.2967 45.3223 30.6534C45.7673 30.5917 46.2007 30.9 46.2676 31.355C46.3356 31.81 46.0224 32.235 45.5659 32.3017C42.0725 32.8217 38.334 35.4267 38.3823 39.9148C38.3874 40.3749 38.0174 40.7519 37.559 40.7566C37.5573 40.7582 37.554 40.7582 37.5507 40.7582Z" fill="#010101"/>
<path d="M41.098 31.1033C39.9749 31.1033 38.8982 30.4467 38.4281 29.365L35.8498 23.4183C35.4848 22.5767 35.4798 21.6467 35.8348 20.8017C36.1898 19.955 40.1898 19.3083 41.0483 18.98L41.7297 18.7183C42.1563 18.555 42.6415 18.7683 42.8063 19.1983C42.9715 19.6283 42.7565 20.11 42.3263 20.275L41.6449 20.5367C41.2166 20.7017 37.5498 21.0233 37.3731 21.4467C37.1965 21.87 37.1965 22.3333 37.3798 22.7533L39.9597 28.7017C40.2216 29.3083 40.9317 29.6017 41.5482 29.3483C42.1396 29.1066 42.4449 28.4633 42.2582 27.8516C42.1213 27.4116 42.3681 26.9466 42.8083 26.81C43.2564 26.6733 43.7165 26.9217 43.8499 27.3617C44.2949 28.805 43.5749 30.3233 42.1766 30.8933C41.8248 31.0367 41.4582 31.1033 41.098 31.1033Z" fill="#010101"/>
</g>
<defs>
<clipPath id="clip0_289_949">
<rect width="80" height="80" fill="white"/>
</clipPath>
</defs>
</svg>
