<svg width="60" height="61" viewBox="0 0 60 61" fill="none" xmlns="http://www.w3.org/2000/svg">
<g clip-path="url(#clip0_501_604)">
<path d="M60 30.5C60 13.9315 46.5685 0.5 30 0.5C13.4315 0.5 0 13.9315 0 30.5C0 47.0685 13.4315 60.5 30 60.5C46.5685 60.5 60 47.0685 60 30.5Z" fill="#EFF8FC"/>
<path d="M39.1419 24.5784L37.9601 20.5162C37.8508 20.1406 37.5696 19.84 37.2028 19.7062L35.169 18.9858L34.4708 16.7841C34.169 15.8317 33.1625 15.2942 32.2016 15.574L31.8702 15.6697C31.2099 15.8624 30.8356 16.5607 31.0431 17.2173L31.2296 17.8101C31.221 17.8162 31.2111 17.8187 31.2039 17.8248L30.7583 16.5534C30.546 15.8784 29.8097 15.5225 29.1482 15.7765L28.6328 15.9741C27.6559 16.3484 27.3098 17.583 27.7234 18.5428L29.7042 22.9879H29.6686L27.6436 18.2261C27.3601 17.5695 26.5759 17.2946 25.9426 17.6297L25.4468 17.8273C24.5263 18.3145 24.1938 19.4681 24.7117 20.3714L26.2335 22.9621L24.9043 20.7162C24.5472 20.1124 23.7105 18.8622 23.1251 19.25L22.5002 20.5C21.2484 21.4058 22.1995 22.9879 22.1995 22.9879V27.2833C22.1995 29.2751 23.2218 31.3013 24.8798 32.4771L23.5494 49.2499H34.8404L34.186 32.2708L38.209 28.2099C39.1589 27.26 39.5162 25.8683 39.1419 24.5784Z" fill="#80D8FF"/>
<path d="M39.1409 24.5784L37.9591 20.5162C37.8499 20.1406 37.5687 19.84 37.2018 19.7062L35.1681 18.9858L34.4699 16.7841C34.1681 15.8317 33.1615 15.2942 32.2006 15.574L31.8693 15.6697C31.209 15.8624 30.8346 16.5607 31.0421 17.2173L31.2287 17.8101C31.22 17.8162 31.2102 17.8187 31.203 17.8248L30.7573 16.5534C30.5451 15.8784 29.8088 15.5225 29.1473 15.7765L28.6318 15.9741C27.7776 16.3018 27.4058 17.286 27.6021 18.1709C27.5445 18.0568 29.7633 23.3708 29.7633 23.3708L29.0196 24.976L28.9484 49.2499H34.8394L34.1851 32.2708L38.2081 28.2099C39.1579 27.26 39.5152 25.8683 39.1409 24.5784Z" fill="#FFF176"/>
<path d="M31.9439 17.7219L37.1956 19.71C37.5636 19.845 37.846 20.1396 37.9565 20.52L39.1344 24.5823C39.5162 25.8709 39.1604 27.2577 38.2018 28.2149L34.4723 31.9459L33.478 32.633L34.7275 25.5493L34.1039 22.4836L32.0666 21.2564C30.9377 20.5814 30.5571 19.1455 31.183 18.0041C31.2935 17.7955 31.5021 17.6851 31.7218 17.6851C31.7968 17.6851 31.8705 17.6973 31.9439 17.7219Z" fill="#FFF176"/>
<path d="M25.9733 32.9484C25.9733 32.9484 28.3726 33.4747 28.3726 30.7857C28.3738 25.6952 34.104 24.5023 34.104 24.5023V22.4835L32.3416 21.4219L32.3807 21.5483C32.6177 22.3031 32.2287 23.1118 31.4911 23.3978C30.7756 23.6751 29.9863 23.3536 29.6354 22.6847H29.482L29.6649 23.1069C29.9655 23.8028 29.687 24.614 29.0206 24.9748C28.3223 25.354 27.4484 25.1061 27.052 24.4176L26.8348 24.0396H26.7231C26.9968 24.6631 26.8201 25.3994 26.2506 25.7995C25.6223 26.2413 24.7583 26.1174 24.2809 25.516L22.4805 23.2444C22.2682 22.9768 22.1516 22.6675 22.1074 22.3534C22.1234 22.724 22.1995 22.9879 22.1995 22.9879V27.2833C22.1995 29.2751 23.2218 31.3012 24.8798 32.4771L25.9733 32.9484Z" fill="#65C7EA"/>
<path d="M25.7187 33.2715C25.6387 33.2715 25.5562 33.2563 25.4787 33.2226C22.91 32.1515 21.25 29.6602 21.25 26.8765V22.0014C21.25 21.6565 21.53 21.3765 21.875 21.3765C22.22 21.3765 22.5 21.6565 22.5 22.0014V26.8765C22.5 29.154 23.8587 31.1927 25.96 32.0703C26.2787 32.2026 26.4287 32.5689 26.2962 32.8877C26.195 33.1277 25.9638 33.2715 25.7187 33.2715Z" fill="#010101"/>
<path d="M25.2069 26.1561C24.5856 26.1561 23.9719 25.8811 23.5594 25.3611L21.7219 23.0473C21.2869 22.5011 21.1006 21.7911 21.2106 21.0998C21.3206 20.4086 22.8806 18.7398 23.4644 18.3536L23.6856 18.2073C23.9719 18.0186 24.3606 18.0948 24.5519 18.3836C24.7419 18.6711 24.6631 19.0598 24.3756 19.2498L24.1544 19.3973C23.8569 19.5936 22.5006 20.9461 22.4444 21.2961C22.3894 21.6461 22.4794 21.9923 22.7006 22.2698L24.5381 24.5836C24.8194 24.9373 25.3281 25.0086 25.6944 24.7511C26.0556 24.4973 26.1631 23.9998 25.9381 23.6198C25.7619 23.3223 25.8606 22.9398 26.1594 22.7636C26.4519 22.5898 26.8381 22.6861 27.0156 22.9836C27.5694 23.9211 27.3044 25.1461 26.4144 25.7736C26.0469 26.0311 25.6256 26.1561 25.2069 26.1561Z" fill="#010101"/>
<path d="M28.1221 25.2563C27.3859 25.2563 26.6659 24.8725 26.2771 24.1975L23.9646 20.1713C23.6246 19.5775 23.5408 18.89 23.7296 18.2325C23.9196 17.575 26.1708 16.339 26.7759 16.0202L27.1546 15.819C27.4608 15.6577 27.8383 15.7727 27.9996 16.079C28.1621 16.384 28.0459 16.7627 27.7408 16.924L27.3621 17.124C27.0583 17.284 25.0271 18.25 24.9321 18.5788C24.8371 18.9075 24.8783 19.2513 25.0496 19.5475L27.3621 23.5738C27.5946 23.9775 28.1171 24.125 28.5271 23.9038C28.9234 23.6888 29.0871 23.2125 28.9083 22.7975C28.7721 22.4813 28.9171 22.1138 29.2346 21.9763C29.5508 21.84 29.9185 21.985 30.0558 22.3025C30.4946 23.315 30.0922 24.4763 29.1234 25.0025C28.8059 25.1738 28.4634 25.2563 28.1221 25.2563Z" fill="#010101"/>
<path d="M34.9992 18.7738C34.7341 18.7738 34.4878 18.6038 34.403 18.3376L33.778 16.3713C33.5717 15.7201 32.8917 15.3625 32.238 15.5501L31.9003 15.6488C31.738 15.6963 31.6054 15.8051 31.5242 15.9538C31.443 16.1025 31.4278 16.2751 31.4792 16.4363L31.669 17.0425C31.7729 17.3713 31.5905 17.7225 31.2615 17.8263C30.9341 17.9325 30.5803 17.7476 30.478 17.4176L30.2878 16.8113C30.1341 16.3263 30.1815 15.8125 30.4215 15.3638C30.6603 14.9151 31.063 14.5901 31.5505 14.4476L31.8878 14.3488C33.2054 13.9676 34.5541 14.6888 34.969 15.9925L35.5941 17.9588C35.6991 18.2876 35.5168 18.6388 35.1878 18.7438C35.1266 18.7651 35.0615 18.7738 34.9992 18.7738Z" fill="#010101"/>
<path d="M34.5019 43.3988C34.167 43.3988 33.8908 43.1349 33.8771 42.7973L33.4595 31.98C33.4458 31.6349 33.7156 31.3451 34.0595 31.3311C34.0681 31.3311 34.0771 31.3311 34.0846 31.3311C34.4195 31.3311 34.6956 31.5949 34.7093 31.9325L35.1269 42.7499C35.1407 43.0949 34.8708 43.3851 34.5269 43.3988C34.5171 43.3988 34.5081 43.3988 34.5019 43.3988Z" fill="#010101"/>
<path d="M34.7504 49.2497C34.4205 49.2497 34.1456 48.9924 34.1268 48.6586L33.9405 45.2634C33.9205 44.9198 34.1856 44.6249 34.5304 44.6061C34.8805 44.581 35.1704 44.8524 35.188 45.196L35.3742 48.5912C35.3942 48.9348 35.1292 49.2297 34.7841 49.2485C34.7731 49.2497 34.7617 49.2497 34.7504 49.2497Z" fill="#010101"/>
<path d="M23.2513 49.25C23.2313 49.25 23.2138 49.25 23.1938 49.2476C22.8513 49.2175 22.5963 48.9127 22.6276 48.57L23.0738 43.57C23.1038 43.2253 23.4126 42.9626 23.7526 43.0026C24.0951 43.0327 24.3501 43.3378 24.3188 43.6802L23.8726 48.6802C23.8426 49.0053 23.5701 49.25 23.2513 49.25Z" fill="#010101"/>
<path d="M23.9236 41.9063C23.9061 41.9063 23.8911 41.9063 23.8748 41.9051C23.5311 41.8788 23.2736 41.5788 23.2985 41.2338L23.9811 32.2776C24.0073 31.9326 24.3473 31.6812 24.6523 31.7024C24.9961 31.7287 25.2536 32.0287 25.2285 32.3738L24.5461 41.3299C24.5198 41.6561 24.2461 41.9063 23.9236 41.9063Z" fill="#010101"/>
<path d="M33.0719 33.1037C32.7931 33.1037 32.5394 32.9163 32.4668 32.6351C32.3821 32.3014 32.5821 31.9602 32.9158 31.8739C33.2119 31.7978 33.6895 31.4226 33.9331 31.1814L37.7319 27.3826C38.5421 26.5726 38.8468 25.3914 38.5245 24.3014L37.3233 20.1601C37.268 19.9689 37.1256 19.8189 36.9331 19.7476L31.5782 17.7201C31.0907 18.5989 31.3868 19.6864 32.2445 20.1989L34.3206 21.4501C34.508 21.5626 34.6233 21.7664 34.6233 21.9851V24.0414C34.6233 24.3864 34.3433 24.6664 33.9982 24.6664C33.6531 24.6664 33.3731 24.3864 33.3731 24.0414V22.3414L31.6006 21.2739C30.1656 20.4152 29.6694 18.5926 30.4758 17.1252C30.7495 16.6076 31.397 16.3464 31.9958 16.5452L37.3695 18.5789C37.9331 18.7864 38.357 19.2364 38.5245 19.8139L39.7245 23.9514C40.1743 25.4776 39.7507 27.1326 38.6158 28.2676L34.8158 32.0676C34.7307 32.1527 33.9695 32.8939 33.2268 33.0852C33.1758 33.099 33.1233 33.1037 33.0719 33.1037Z" fill="#010101"/>
<path d="M28.1625 31.0684C27.8213 31.0684 27.5413 30.7935 27.5375 30.4496C27.495 26.5173 30.7512 23.9723 33.9912 23.4898C34.325 23.4435 34.65 23.6748 34.7002 24.016C34.7512 24.3573 34.5163 24.676 34.1739 24.726C31.5539 25.116 28.75 27.0698 28.7863 30.4359C28.79 30.781 28.5125 31.0637 28.1688 31.0672C28.1675 31.0684 28.165 31.0684 28.1625 31.0684Z" fill="#010101"/>
<path d="M30.824 23.8275C29.9816 23.8275 29.1741 23.335 28.8216 22.5237L26.8878 18.0637C26.6141 17.4325 26.6103 16.735 26.8766 16.1012C27.1429 15.4662 30.1428 14.9812 30.7867 14.735L31.2977 14.5387C31.6177 14.4162 31.9816 14.5762 32.1052 14.8987C32.2291 15.2212 32.0679 15.5825 31.7452 15.7062L31.2342 15.9025C30.913 16.0262 28.1629 16.2675 28.0303 16.585C27.8978 16.9025 27.8978 17.25 28.0354 17.565L29.9703 22.0262C30.1667 22.4812 30.6992 22.7012 31.1616 22.5112C31.6052 22.33 31.8342 21.8475 31.6942 21.3887C31.5915 21.0587 31.7766 20.71 32.1067 20.6075C32.4428 20.505 32.7879 20.6912 32.8879 21.0212C33.2216 22.1037 32.6816 23.2425 31.633 23.67C31.3691 23.7775 31.0942 23.8275 30.824 23.8275Z" fill="#010101"/>
</g>
<defs>
<clipPath id="clip0_501_604">
<rect width="60" height="60" fill="white" transform="translate(0 0.5)"/>
</clipPath>
</defs>
</svg>
