<svg width="75" height="76" viewBox="0 0 75 76" fill="none" xmlns="http://www.w3.org/2000/svg">
<path d="M73.4255 19.885C72.5349 16.7233 70.0692 14.2436 66.8934 13.3671C61.0458 11.8038 37.538 11.8038 37.538 11.8038C37.538 11.8038 14.0747 11.7663 8.1661 13.3671C5.00672 14.246 2.52938 16.7233 1.64813 19.885C0.539537 25.878 -0.0112446 31.9436 0.0145367 38.0374C0.00281795 44.0913 0.551255 50.1475 1.64813 56.103C2.52938 59.2647 5.00672 61.7444 8.1661 62.635C14.0138 64.1983 37.538 64.1983 37.538 64.1983C37.538 64.1983 60.9872 64.1983 66.8934 62.635C70.0692 61.7444 72.5349 59.2671 73.4255 56.103C74.5013 50.1475 75.0263 44.0913 74.9888 38.0374C75.0263 31.9436 74.513 25.878 73.4255 19.885ZM30.0286 49.2569V26.7686L49.5966 38.0374L30.0286 49.2569Z" fill="#FDF258"/>
</svg>
